<svg xmlns="http://www.w3.org/2000/svg" viewBox="0 0 300 200"><title>city</title><path d="M19.92-.08h260a20,20,0,0,1,20,20V133.26a0,0,0,0,1,0,0H-.08a0,0,0,0,1,0,0V19.92a20,20,0,0,1,20-20Z" fill="#b5e4fa"/><path d="M299.92,121.24c-7.84.57-19.52,1.29-33.67,1.67-57.13,1.54-98.1-3.95-116.83-5.86C115.5,113.59,66,112.83-.08,125.74v44.33h300Z" fill="#a5d5a7"/><path d="M105.23,170.12a42.2,42.2,0,0,1,9.22-16c3.18-3.41,10.68-10.25,31.61-14.28,6.34-1.22,8.81-1.2,43.23-1.24,26.3,0,36.63-.06,48.53,5.7,3.85,1.86,4.92,2.9,9.7,4.87,15.26,6.26,24.21,3.8,28.68,10,1.42,2,2.75,5.33,1.76,11.26l-15.31-.09c-6.91-.82-16.47-3.09-25-9.92-4.14-3.33-4.5-5-7.65-7.72-4.45-3.85-10.69-6.88-40.76-7.91-23-.79-34.62-1.1-42.12,2.63-12.15,6.05-18.77,16.55-22,22.89Z" fill="#e4e9e3"/><path d="M-.08,169.92H301.06a0,0,0,0,1,0,0v10a20,20,0,0,1-20,20H19.92a20,20,0,0,1-20-20v-10A0,0,0,0,1-.08,169.92Z" fill="#37474f"/><path d="M19.57,185.67h20a.75.75,0,0,0,0-1.5h-20a.75.75,0,0,0,0,1.5Z" fill="#e0edf0"/><path d="M58.56,185.67h20a.75.75,0,0,0,0-1.5h-20a.75.75,0,0,0,0,1.5Z" fill="#e0edf0"/><path d="M142.81,185.67h20a.75.75,0,0,0,0-1.5h-20a.75.75,0,0,0,0,1.5Z" fill="#e0edf0"/><path d="M101.17,185.67h20a.75.75,0,0,0,0-1.5h-20a.75.75,0,0,0,0,1.5Z" fill="#e0edf0"/><path d="M185.46,185.67h20a.75.75,0,0,0,0-1.5h-20a.75.75,0,0,0,0,1.5Z" fill="#e0edf0"/><path d="M228.72,185.67h20a.75.75,0,0,0,0-1.5h-20a.75.75,0,0,0,0,1.5Z" fill="#e0edf0"/><path d="M270.88,185.67h20a.75.75,0,0,0,0-1.5h-20a.75.75,0,0,0,0,1.5Z" fill="#e0edf0"/><path d="M108.5,25.75c-2.25-4.81,2.27-12.78,8-16.75,11.43-7.92,29.24-1,39,2.75,18.63,7.22,21.09,14.67,32,13.75,12-1,16.79-10.75,23.25-8,6,2.57,9.11,14.12,5.75,22-7.09,16.61-44.57,20.84-56.75,7.25-5.64-6.29-2.78-13-9-16.5-7.43-4.22-14.67,3.49-31,.75C115.15,30.23,110.17,29.33,108.5,25.75Z" fill="#f5f5f5"/><path d="M10.5,23.5c-.16-7.64,8.07-14.91,15.75-15.75,9.27-1,10.91,8.1,22.75,10.5C62.35,21,67,10.74,81.75,13c8.48,1.3,20.07,6.68,20.5,14.5.31,5.7-5.32,12.32-11.25,13-7.31.84-9.31-8-19.25-10.25C63.92,28.5,62,33.3,46.5,36.5c-9.32,1.92-21.16,4.37-29.5-2C16.11,33.82,10.63,29.64,10.5,23.5Z" fill="#f5f5f5"/><path d="M111.5,37.5c-4.51.25-9.49,5.06-9,8.75,1.1,8.31,30.78,17,40.75,6,3.7-4.07,4.83-11,2.5-13-3.62-3.11-12.95,7.84-23,4.5C117.19,41.9,116.11,37.24,111.5,37.5Z" fill="#f5f5f5"/><path d="M232.54,4.2c-6.33,1.1-12,11.57-9.5,18,4.16,10.77,30.15,7.62,35.25,7,8.49-1,17.46-2.11,19.75-8.25,2-5.33-1.51-13.24-6.25-14.5-6-1.6-9.27,8.74-18,9C244,15.75,240.1,2.88,232.54,4.2Z" fill="#f5f5f5"/><path d="M226.43,51.73a20,20,0,0,0-13.36-19l-23-8.08a4.89,4.89,0,0,0-6.57,3.92,5.06,5.06,0,0,0,0,.51V133a5,5,0,0,0,5,5H221a5,5,0,0,0,5-5Z" fill="#e1edf1"/><rect x="180.84" y="122" width="47.81" height="18" rx="5" ry="5" fill="#c6dbe0"/><path d="M203.25,130h3a3.5,3.5,0,0,1,3.5,3.5V140a0,0,0,0,1,0,0h-10a0,0,0,0,1,0,0v-6.5A3.5,3.5,0,0,1,203.25,130Z" fill="#adc5c9"/><rect x="186" y="107.5" width="5" height="10" rx="1" ry="1" fill="#9ad8e0"/><rect x="218.5" y="107.5" width="5" height="10" rx="1" ry="1" fill="#9ad8e0"/><rect x="194.13" y="107.5" width="5" height="10" rx="1" ry="1" fill="#9ad8e0"/><rect x="202.25" y="107.5" width="5" height="10" rx="1" ry="1" fill="#9ad8e0"/><rect x="210.38" y="107.5" width="5" height="10" rx="1" ry="1" fill="#9ad8e0"/><rect x="186" y="92.5" width="5" height="10" rx="1" ry="1" fill="#9ad8e0"/><rect x="218.5" y="92.5" width="5" height="10" rx="1" ry="1" fill="#9ad8e0"/><rect x="194.12" y="92.5" width="5" height="10" rx="1" ry="1" fill="#9ad8e0"/><rect x="202.25" y="92.5" width="5" height="10" rx="1" ry="1" fill="#9ad8e0"/><rect x="210.37" y="92.5" width="5" height="10" rx="1" ry="1" fill="#9ad8e0"/><rect x="186" y="77.5" width="5" height="10" rx="1" ry="1" fill="#9ad8e0"/><rect x="218.5" y="77.5" width="5" height="10" rx="1" ry="1" fill="#9ad8e0"/><rect x="194.12" y="77.5" width="5" height="10" rx="1" ry="1" fill="#9ad8e0"/><rect x="202.25" y="77.5" width="5" height="10" rx="1" ry="1" fill="#9ad8e0"/><rect x="210.37" y="77.5" width="5" height="10" rx="1" ry="1" fill="#9ad8e0"/><rect x="186" y="62.41" width="5" height="10" rx="1" ry="1" fill="#9ad8e0"/><rect x="218.5" y="62.41" width="5" height="10" rx="1" ry="1" fill="#9ad8e0"/><rect x="194.13" y="62.41" width="5" height="10" rx="1" ry="1" fill="#9ad8e0"/><rect x="202.25" y="62.41" width="5" height="10" rx="1" ry="1" fill="#9ad8e0"/><rect x="210.38" y="62.41" width="5" height="10" rx="1" ry="1" fill="#9ad8e0"/><rect x="186" y="47.41" width="5" height="10" rx="1" ry="1" fill="#9ad8e0"/><rect x="218.5" y="47.41" width="5" height="10" rx="1" ry="1" fill="#9ad8e0"/><rect x="194.12" y="47.41" width="5" height="10" rx="1" ry="1" fill="#9ad8e0"/><rect x="202.25" y="47.41" width="5" height="10" rx="1" ry="1" fill="#9ad8e0"/><rect x="210.37" y="47.41" width="5" height="10" rx="1" ry="1" fill="#9ad8e0"/><rect x="186" y="32.41" width="5" height="10" rx="1" ry="1" fill="#9ad8e0"/><rect x="194.13" y="32.41" width="5" height="10" rx="1" ry="1" fill="#9ad8e0"/><rect x="202.25" y="32.41" width="5" height="10" rx="1" ry="1" fill="#9ad8e0"/><path d="M231.5,41.5c-3.33,1.88-12.65,7.17-11.75,11.25,1,4.41,13.73,6.82,24.5,4.75,10-1.92,10.53-6.19,18.75-6.5,10.42-.39,14.39,6.3,20.25,3.75,5.39-2.34,9.26-11.15,6.75-16.5C284.92,27.44,253,29.3,231.5,41.5Z" fill="#f5f5f5"/><rect x="245.47" y="46.56" width="43.12" height="112.5" rx="5" ry="5" fill="#e0edf0"/><rect x="242.97" y="141.06" width="47.81" height="18" rx="5" ry="5" fill="#c6dbe0"/><path d="M265.38,149.06h3a3.5,3.5,0,0,1,3.5,3.5v6.5a0,0,0,0,1,0,0h-10a0,0,0,0,1,0,0v-6.5A3.5,3.5,0,0,1,265.38,149.06Z" fill="#adc5c9"/><path d="M245.47,126.56h17.91a1,1,0,0,1,1,1v8a1,1,0,0,1-1,1H245.47a0,0,0,0,1,0,0v-10A0,0,0,0,1,245.47,126.56Z" fill="#9ad8e0"/><path d="M270.38,126.56h18.21a0,0,0,0,1,0,0v10a0,0,0,0,1,0,0H270.38a1,1,0,0,1-1-1v-8A1,1,0,0,1,270.38,126.56Z" fill="#9ad8e0"/><path d="M245.47,96.56h17.91a1,1,0,0,1,1,1v8a1,1,0,0,1-1,1H245.47a0,0,0,0,1,0,0v-10A0,0,0,0,1,245.47,96.56Z" fill="#9ad8e0"/><path d="M270.38,96.56h18.21a0,0,0,0,1,0,0v10a0,0,0,0,1,0,0H270.38a1,1,0,0,1-1-1v-8A1,1,0,0,1,270.38,96.56Z" fill="#9ad8e0"/><path d="M245.47,111.56h17.91a1,1,0,0,1,1,1v8a1,1,0,0,1-1,1H245.47a0,0,0,0,1,0,0v-10A0,0,0,0,1,245.47,111.56Z" fill="#9ad8e0"/><path d="M270.38,111.56h18.21a0,0,0,0,1,0,0v10a0,0,0,0,1,0,0H270.38a1,1,0,0,1-1-1v-8A1,1,0,0,1,270.38,111.56Z" fill="#9ad8e0"/><path d="M245.47,81.56h17.91a1,1,0,0,1,1,1v8a1,1,0,0,1-1,1H245.47a0,0,0,0,1,0,0v-10a0,0,0,0,1,0,0Z" fill="#9ad8e0"/><path d="M270.38,81.56h18.21a0,0,0,0,1,0,0v10a0,0,0,0,1,0,0H270.38a1,1,0,0,1-1-1v-8A1,1,0,0,1,270.38,81.56Z" fill="#9ad8e0"/><path d="M245.47,66.56h17.91a1,1,0,0,1,1,1v8a1,1,0,0,1-1,1H245.47a0,0,0,0,1,0,0v-10A0,0,0,0,1,245.47,66.56Z" fill="#9ad8e0"/><path d="M270.38,66.56h18.21a0,0,0,0,1,0,0v10a0,0,0,0,1,0,0H270.38a1,1,0,0,1-1-1v-8A1,1,0,0,1,270.38,66.56Z" fill="#9ad8e0"/><path d="M245.47,51.56h17.91a1,1,0,0,1,1,1v8a1,1,0,0,1-1,1H245.47a0,0,0,0,1,0,0v-10A0,0,0,0,1,245.47,51.56Z" fill="#9ad8e0"/><path d="M270.38,51.56h18.21a0,0,0,0,1,0,0v10a0,0,0,0,1,0,0H270.38a1,1,0,0,1-1-1v-8A1,1,0,0,1,270.38,51.56Z" fill="#9ad8e0"/><path d="M100.35,133.25h27.37a0,0,0,0,1,0,0v15.81a5,5,0,0,1-5,5H105.35a5,5,0,0,1-5-5V133.25A0,0,0,0,1,100.35,133.25Z" fill="#e0edf0"/><path d="M130.36,128.13a4.09,4.09,0,0,1,.16,5.73l0,0a5.83,5.83,0,0,1-4,1.67H101.62a5.83,5.83,0,0,1-4-1.67l0,0a4.11,4.11,0,0,1,.13-5.74l12.18-12.27a5.69,5.69,0,0,1,8,0Z" fill="#c6dbe0"/><path d="M118,146.56h5a1,1,0,0,1,1,1v6.5a0,0,0,0,1,0,0h-7a0,0,0,0,1,0,0v-6.5A1,1,0,0,1,118,146.56Z" fill="#adc5c9"/><rect x="103.85" y="139.06" width="20.19" height="5" rx="1" ry="1" fill="#9ad8e0"/><rect x="103.85" y="146.56" width="9.59" height="5" rx="1" ry="1" fill="#9ad8e0"/><rect x="121.58" y="119.88" width="4.91" height="10" rx="1" ry="1" fill="#adc5c9"/><rect x="103.94" y="125.5" width="5" height="5" rx="1" ry="1" fill="#3d82c4"/><rect x="105.04" y="125.5" width="0.34" height="5" fill="#478fcc"/><rect x="107.52" y="125.5" width="0.34" height="5" fill="#478fcc"/><rect x="106.27" y="125.5" width="0.34" height="5" fill="#478fcc"/><rect x="106.27" y="126.74" width="0.34" height="5" transform="translate(-22.8 235.69) rotate(-90)" fill="#478fcc"/><rect x="106.27" y="124.26" width="0.34" height="5" transform="translate(-20.32 233.21) rotate(-90)" fill="#478fcc"/><rect x="106.27" y="125.52" width="0.34" height="5" transform="translate(-21.57 234.46) rotate(-90)" fill="#478fcc"/><rect x="119.13" y="125.5" width="5" height="5" rx="1" ry="1" fill="#3d82c4"/><rect x="120.23" y="125.5" width="0.34" height="5" fill="#478fcc"/><rect x="122.71" y="125.5" width="0.34" height="5" fill="#478fcc"/><rect x="121.46" y="125.5" width="0.34" height="5" fill="#478fcc"/><rect x="121.46" y="126.74" width="0.34" height="5" transform="translate(-7.61 250.87) rotate(-90)" fill="#478fcc"/><rect x="121.46" y="124.26" width="0.34" height="5" transform="translate(-5.13 248.39) rotate(-90)" fill="#478fcc"/><rect x="121.46" y="125.52" width="0.34" height="5" transform="translate(-6.39 249.65) rotate(-90)" fill="#478fcc"/><rect x="111.63" y="125.5" width="5" height="5" rx="1" ry="1" fill="#3d82c4"/><rect x="112.73" y="125.5" width="0.34" height="5" fill="#478fcc"/><rect x="115.21" y="125.5" width="0.34" height="5" fill="#478fcc"/><rect x="113.96" y="125.5" width="0.34" height="5" fill="#478fcc"/><rect x="113.96" y="126.74" width="0.34" height="5" transform="translate(-15.11 243.37) rotate(-90)" fill="#478fcc"/><rect x="113.96" y="124.26" width="0.34" height="5" transform="translate(-12.63 240.89) rotate(-90)" fill="#478fcc"/><rect x="113.96" y="125.52" width="0.34" height="5" transform="translate(-13.89 242.15) rotate(-90)" fill="#478fcc"/><rect x="107.87" y="119.26" width="5" height="5" rx="1" ry="1" fill="#3d82c4"/><rect x="108.97" y="119.26" width="0.34" height="5" fill="#478fcc"/><rect x="111.45" y="119.26" width="0.34" height="5" fill="#478fcc"/><rect x="110.2" y="119.26" width="0.34" height="5" fill="#478fcc"/><rect x="110.2" y="120.51" width="0.34" height="5" transform="translate(-12.64 233.38) rotate(-90)" fill="#478fcc"/><rect x="110.2" y="118.03" width="0.34" height="5" transform="translate(-10.16 230.9) rotate(-90)" fill="#478fcc"/><rect x="110.2" y="119.28" width="0.34" height="5" transform="translate(-11.42 232.15) rotate(-90)" fill="#478fcc"/><rect x="115.37" y="119.28" width="5" height="5" rx="1" ry="1" fill="#3d82c4"/><rect x="116.47" y="119.28" width="0.34" height="5" fill="#478fcc"/><rect x="118.95" y="119.28" width="0.34" height="5" fill="#478fcc"/><rect x="117.7" y="119.28" width="0.34" height="5" fill="#478fcc"/><rect x="117.7" y="120.53" width="0.34" height="5" transform="translate(-5.16 240.9) rotate(-90)" fill="#478fcc"/><rect x="117.7" y="118.05" width="0.34" height="5" transform="translate(-2.68 238.42) rotate(-90)" fill="#478fcc"/><rect x="117.7" y="119.31" width="0.34" height="5" transform="translate(-3.94 239.67) rotate(-90)" fill="#478fcc"/><path d="M142.55,119h27.37a0,0,0,0,1,0,0v15.81a5,5,0,0,1-5,5H147.55a5,5,0,0,1-5-5V119A0,0,0,0,1,142.55,119Z" fill="#e0edf0"/><path d="M172.56,113.89a4.09,4.09,0,0,1,.16,5.73l0,0a5.83,5.83,0,0,1-4,1.67H143.81a5.83,5.83,0,0,1-4-1.67l0,0a4.11,4.11,0,0,1,.13-5.74l12.18-12.27a5.69,5.69,0,0,1,8,0Z" fill="#c6dbe0"/><path d="M160.23,132.32h5a1,1,0,0,1,1,1v6.5a0,0,0,0,1,0,0h-7a0,0,0,0,1,0,0v-6.5A1,1,0,0,1,160.23,132.32Z" fill="#adc5c9"/><rect x="146.05" y="132.32" width="4" height="5" rx="1" ry="1" fill="#9ad8e0"/><rect x="152.23" y="132.32" width="4" height="5" rx="1" ry="1" fill="#9ad8e0"/><rect x="146.05" y="124.82" width="10.19" height="5" rx="1" ry="1" fill="#9ad8e0"/><rect x="159.23" y="124.82" width="7" height="5" rx="1" ry="1" fill="#9ad8e0"/><rect x="163.78" y="105.64" width="4.91" height="10" rx="1" ry="1" fill="#adc5c9"/><path d="M0,135.33a33,33,0,0,1,8-3.17c8-2,12.15.25,22-1.67,3.11-.6,2.38-.77,5.83-1.5,3.91-.83,10.68-1.86,25.17-.33,8.43.89,17.35,1.83,17.42,3.58s-8.12,3.22-10,3.58a72.88,72.88,0,0,1-23.57.58c-8.72-1.36-22.57-1.25-44.83,5.5Z" fill="#37474f"/><rect x="139.13" y="155.95" width="3.5" height="9.63" rx="1.75" ry="1.75" fill="#8d6e63"/><circle cx="140.7" cy="152.96" r="4.81" fill="#66bb6a"/><rect x="176.03" y="121.4" width="2.32" height="6.38" rx="1.16" ry="1.16" fill="#8d6e63"/><circle cx="177.07" cy="119.41" r="3.19" fill="#66bb6a"/><rect x="290.49" y="155.95" width="3.5" height="9.63" rx="1.75" ry="1.75" fill="#8d6e63"/><circle cx="292.06" cy="152.96" r="4.81" fill="#66bb6a"/><rect x="132.57" y="137.14" width="10.06" height="5.72" rx="2.86" ry="2.86" fill="#66bb6a"/><rect x="150.05" y="143.69" width="10.06" height="5.72" rx="2.86" ry="2.86" fill="#66bb6a"/><rect x="228.66" y="138.19" width="10.06" height="5.72" rx="2.86" ry="2.86" fill="#66bb6a"/><rect x="189.1" y="143.69" width="10.06" height="5.72" rx="2.86" ry="2.86" fill="#66bb6a"/><rect x="225.47" y="154.91" width="10.06" height="5.72" rx="2.86" ry="2.86" fill="#66bb6a"/><rect x="4.55" y="125.38" width="1.48" height="4.07" rx="0.74" ry="0.74" fill="#8d6e63"/><circle cx="5.21" cy="124.11" r="2.04" fill="#66bb6a"/><rect x="78.34" y="117.11" width="1.48" height="4.07" rx="0.74" ry="0.74" fill="#8d6e63"/><circle cx="79" cy="115.85" r="2.04" fill="#66bb6a"/><rect x="132.99" y="117.89" width="1.48" height="4.07" rx="0.74" ry="0.74" fill="#8d6e63"/><circle cx="133.66" cy="116.63" r="2.04" fill="#66bb6a"/><rect x="99.69" y="115.46" width="1.48" height="4.07" rx="0.74" ry="0.74" fill="#8d6e63"/><circle cx="100.35" cy="114.2" r="2.04" fill="#66bb6a"/><rect x="236.02" y="124.77" width="1.48" height="4.07" rx="0.74" ry="0.74" fill="#8d6e63"/><circle cx="236.68" cy="123.51" r="2.04" fill="#66bb6a"/><rect x="38" y="139.26" width="2.15" height="5.91" rx="1.07" ry="1.07" fill="#8d6e63"/><path d="M38.23,135.54l-1.48,4.84a1,1,0,0,0,1,1.29h2.71a1,1,0,0,0,1-1.24l-1.23-4.84A1,1,0,0,0,38.23,135.54Z" fill="#66bb6a"/><rect x="88" y="127.53" width="2.12" height="5.82" rx="1.06" ry="1.06" fill="#8d6e63"/><path d="M88.23,123.87l-1.45,4.76a1,1,0,0,0,.94,1.27h2.66a1,1,0,0,0,1-1.22l-1.21-4.76A1,1,0,0,0,88.23,123.87Z" fill="#66bb6a"/><rect x="174.59" y="142.83" width="3.13" height="8.61" rx="1.07" ry="1.07" fill="#8d6e63"/><path d="M174.93,137.42l-2.15,7a1.45,1.45,0,0,0,1.39,1.88h3.94a1.45,1.45,0,0,0,1.41-1.81l-1.79-7A1.45,1.45,0,0,0,174.93,137.42Z" fill="#66bb6a"/><rect x="216.95" y="146.05" width="3.13" height="8.61" rx="1.07" ry="1.07" fill="#8d6e63"/><path d="M217.29,140.64l-2.15,7a1.45,1.45,0,0,0,1.39,1.88h3.94a1.45,1.45,0,0,0,1.41-1.81l-1.79-7A1.45,1.45,0,0,0,217.29,140.64Z" fill="#66bb6a"/><rect x="293.81" y="127.61" width="2.28" height="6.28" rx="1.07" ry="1.07" fill="#8d6e63"/><path d="M294.05,123.67l-1.57,5.13a1.06,1.06,0,0,0,1,1.37h2.87a1.06,1.06,0,0,0,1-1.32l-1.31-5.13A1.06,1.06,0,0,0,294.05,123.67Z" fill="#66bb6a"/><rect x="84.36" y="141" width="2.65" height="7.28" rx="1.07" ry="1.07" fill="#8d6e63"/><path d="M84.64,136.42l-1.82,6A1.23,1.23,0,0,0,84,144h3.33a1.23,1.23,0,0,0,1.19-1.53l-1.51-6A1.23,1.23,0,0,0,84.64,136.42Z" fill="#66bb6a"/><rect x="6.67" y="153.76" width="2.29" height="6.3" rx="0.74" ry="0.74" fill="#8d6e63"/><circle cx="7.7" cy="151.8" r="3.15" fill="#66bb6a"/><path d="M48.13,66c-4.14,1.19-6.31.13-7.25,1.63-1.09,1.74,1.36,3.91.25,5.75-1.23,2-5.06.67-6,2.44s2.7,3.86,2.56,7.75c-.09,2.49-1.63,2.74-3.06,6.44-.86,2.21-2.56,6.62-.5,9.81s7.2,4.35,10.63,2.5c3.13-1.69,3.74-6.41,4.34-10.32.49-3.2.11-4.6,1.35-6.74s2.51-2.14,4.63-4.31c.86-.88,4.95-5.21,4.38-10.56-.27-2.54-1.64-6.48-4.25-7.12C53.14,62.74,52.42,64.77,48.13,66Z" fill="#c5e8ef"/><path d="M51.6,125H30.52a1,1,0,0,1-1-1.22,93.93,93.93,0,0,0,2.22-16.41,93.8,93.8,0,0,0-.16-11.29,1,1,0,0,1,1-1.07L49,95.27a1,1,0,0,1,1,1.05,91.56,91.56,0,0,0,2.62,27.47A1,1,0,0,1,51.6,125Z" fill="#d1e4e8"/><rect x="30.93" y="94.22" width="20.1" height="2.33" rx="0.93" ry="0.93" fill="#c6dbe0"/><path d="M26.17,78.5c-1.68.51-2.55-.2-3.33.5-1.22,1.1.38,3.3-.92,5-.73,1-1.41.47-3.17,1.75-.84.61-2.45,1.79-2.58,3.42-.12,1.46,1.07,1.75,1.08,3.25,0,1.69-1.5,2-2.58,4.33a7.64,7.64,0,0,0-.33,5.92,6.72,6.72,0,0,0,2.92,3.08c2.8,1.66,7.06,1.88,9.75-.42,1.83-1.56,3-4.34,2.17-5.5-.57-.79-1.66-.26-2.25-1-1.1-1.4.69-5.9,4.08-7.67,2.36-1.23,3.33,0,5.67-1.17,4.1-2,4.8-7.65,4.83-7.92.07-.61.69-6.24-2.67-8.25-2.65-1.59-6.85-.34-9.08,1.67C28.45,76.67,28,77.95,26.17,78.5Z" fill="#afd5e1"/><path d="M32.57,132H11.5a1,1,0,0,1-1-1.22,93.93,93.93,0,0,0,2.22-16.41A93.8,93.8,0,0,0,12.58,103a1,1,0,0,1,1-1.07l16.36.22a1,1,0,0,1,1,1.05,91.56,91.56,0,0,0,2.62,27.47A1,1,0,0,1,32.57,132Z" fill="#e0edf0"/><rect x="11.91" y="101.15" width="20.1" height="2.33" rx="0.93" ry="0.93" fill="#c6dbe0"/><rect x="56.05" y="86.25" width="5.69" height="39.71" fill="#d1e4e8"/><rect x="55.17" y="85.09" width="7.44" height="2.33" rx="0.93" ry="0.93" fill="#c6dbe0"/><rect x="56.1" y="89.74" width="5.58" height="2.33" fill="#ef9a9b"/><rect x="56.1" y="94.39" width="5.58" height="2.33" fill="#ef9a9b"/><rect x="63.56" y="82.14" width="5.69" height="42.67" fill="#d1e4e8"/><rect x="62.68" y="80.98" width="7.44" height="2.33" rx="0.93" ry="0.93" fill="#c6dbe0"/><rect x="63.61" y="85.63" width="5.58" height="2.33" fill="#ef9a9b"/><rect x="63.61" y="90.28" width="5.58" height="2.33" fill="#ef9a9b"/><rect x="37" y="108.88" width="34" height="21" rx="2" ry="2" fill="#e0edf0"/><rect x="67.06" y="110.49" width="2" height="5" rx="1" ry="1" fill="#9ad8e0"/><rect x="63.56" y="110.49" width="2" height="5" rx="1" ry="1" fill="#9ad8e0"/><rect x="60.06" y="110.49" width="2" height="5" rx="1" ry="1" fill="#9ad8e0"/><rect x="56.56" y="110.49" width="2" height="5" rx="1" ry="1" fill="#9ad8e0"/><rect x="53.06" y="110.49" width="2" height="5" rx="1" ry="1" fill="#9ad8e0"/><rect x="49.56" y="110.49" width="2" height="5" rx="1" ry="1" fill="#9ad8e0"/><rect x="46.06" y="110.49" width="2" height="5" rx="1" ry="1" fill="#9ad8e0"/><rect x="42.56" y="110.49" width="2" height="5" rx="1" ry="1" fill="#9ad8e0"/><rect x="39.06" y="110.49" width="2" height="5" rx="1" ry="1" fill="#9ad8e0"/><rect x="67.06" y="116.88" width="2" height="5" rx="1" ry="1" fill="#9ad8e0"/><rect x="63.56" y="116.88" width="2" height="5" rx="1" ry="1" fill="#9ad8e0"/><rect x="60.06" y="116.88" width="2" height="5" rx="1" ry="1" fill="#9ad8e0"/><rect x="56.56" y="116.88" width="2" height="5" rx="1" ry="1" fill="#9ad8e0"/><rect x="53.06" y="116.88" width="2" height="5" rx="1" ry="1" fill="#9ad8e0"/><rect x="49.56" y="116.88" width="2" height="5" rx="1" ry="1" fill="#9ad8e0"/><rect x="46.06" y="116.88" width="2" height="5" rx="1" ry="1" fill="#9ad8e0"/><rect x="42.56" y="116.88" width="2" height="5" rx="1" ry="1" fill="#9ad8e0"/><rect x="39.06" y="116.88" width="2" height="5" rx="1" ry="1" fill="#9ad8e0"/><rect x="67.06" y="123.26" width="2" height="5" rx="1" ry="1" fill="#9ad8e0"/><rect x="63.56" y="123.26" width="2" height="5" rx="1" ry="1" fill="#9ad8e0"/><rect x="60.06" y="123.26" width="2" height="5" rx="1" ry="1" fill="#9ad8e0"/><rect x="56.56" y="123.26" width="2" height="5" rx="1" ry="1" fill="#9ad8e0"/><rect x="49.56" y="123.26" width="2" height="5" rx="1" ry="1" fill="#9ad8e0"/><rect x="46.06" y="123.26" width="2" height="5" rx="1" ry="1" fill="#9ad8e0"/><rect x="42.56" y="123.26" width="2" height="5" rx="1" ry="1" fill="#9ad8e0"/><rect x="39.06" y="123.26" width="2" height="5" rx="1" ry="1" fill="#9ad8e0"/><rect x="52.76" y="123.26" width="21.6" height="8" rx="2" ry="2" fill="#c6dbe0"/><rect x="54.06" y="124.76" width="11.5" height="5" rx="1" ry="1" fill="#9ad8e0"/><path d="M68.06,125h3.85a1,1,0,0,1,1,1v5.23a0,0,0,0,1,0,0H67.06a0,0,0,0,1,0,0V126A1,1,0,0,1,68.06,125Z" fill="#adc5c9"/><polygon points="38.84 122.61 36 122.61 36.69 98.25 37.94 98.25 38.84 122.61" fill="#d1e4e8"/><rect x="34.94" y="121.58" width="4.96" height="1.86" rx="0.93" ry="0.93" fill="#c6dbe0"/><path d="M37.41,98.12h0a1.24,1.24,0,0,1-1.24-1.33c.49-6.89.91-8.54,1.22-8.54s.74,1.65,1.25,8.54A1.24,1.24,0,0,1,37.41,98.12Z" fill="#e0edf0"/><path d="M37.25,98.74h0a1.24,1.24,0,0,1-.53,1.74c-6.21,3-7.85,3.48-8,3.21s1.06-1.47,6.77-5.35A1.24,1.24,0,0,1,37.25,98.74Z" fill="#e0edf0"/><path d="M37.58,98.74h0a1.24,1.24,0,0,1,1.77-.4c5.72,3.86,6.94,5.06,6.78,5.33s-1.8-.18-8-3.19A1.24,1.24,0,0,1,37.58,98.74Z" fill="#e0edf0"/><circle cx="37.42" cy="98.51" r="1.25" fill="#c6dbe0"/><polygon points="84.44 127.43 81.59 127.43 82.28 103.07 83.53 103.07 84.44 127.43" fill="#d1e4e8"/><rect x="80.54" y="126.4" width="4.96" height="1.86" rx="0.93" ry="0.93" fill="#c6dbe0"/><path d="M82.85,103.17h0a1.24,1.24,0,0,1-.73-1.67c2.74-6.34,3.68-7.76,4-7.66s.15,1.8-1.65,8.47A1.24,1.24,0,0,1,82.85,103.17Z" fill="#e0edf0"/><path d="M82.49,103.69h0a1.24,1.24,0,0,1-1.08,1.46c-6.86.8-8.56.69-8.62.38s1.49-1,8.16-2.81A1.24,1.24,0,0,1,82.49,103.69Z" fill="#e0edf0"/><path d="M82.8,103.8h0a1.24,1.24,0,0,1,1.81.2c4.12,5.54,4.88,7.07,4.64,7.27s-1.64-.77-6.51-5.66A1.24,1.24,0,0,1,82.8,103.8Z" fill="#e0edf0"/><circle cx="82.73" cy="103.54" r="1.25" transform="translate(-42.34 147.37) rotate(-70.69)" fill="#c6dbe0"/><polygon points="24.22 128.93 21.37 128.93 22.06 104.57 23.31 104.57 24.22 128.93" fill="#d1e4e8"/><rect x="20.32" y="127.89" width="4.96" height="1.86" rx="0.93" ry="0.93" fill="#c6dbe0"/><path d="M22.7,104.59h0a1.24,1.24,0,0,1-1.55-.94c-1.42-6.76-1.47-8.46-1.16-8.55s1.17,1.39,3.54,7.87A1.24,1.24,0,0,1,22.7,104.59Z" fill="#e0edf0"/><path d="M22.71,105.23h0a1.24,1.24,0,0,1,0,1.82c-5.14,4.61-6.59,5.5-6.82,5.28s.62-1.7,5-7A1.24,1.24,0,0,1,22.71,105.23Z" fill="#e0edf0"/><path d="M23,105.14h0a1.24,1.24,0,0,1,1.59-.87c6.56,2.15,8.06,3,8,3.27s-1.78.32-8.58-.87A1.24,1.24,0,0,1,23,105.14Z" fill="#e0edf0"/><circle cx="22.82" cy="104.96" r="1.25" transform="translate(-27.91 10.28) rotate(-15.92)" fill="#c6dbe0"/><polygon points="63.96 122.84 61.12 122.84 61.81 98.48 63.06 98.48 63.96 122.84" fill="#d1e4e8"/><rect x="60.06" y="121.81" width="4.96" height="1.86" rx="0.93" ry="0.93" fill="#c6dbe0"/><path d="M62.53,99.19h0a1.24,1.24,0,0,1,1.7.63c2.66,6.37,3,8,2.74,8.18s-1.41-1.14-5-7.07A1.24,1.24,0,0,1,62.53,99.19Z" fill="#e0edf0"/><path d="M62.4,98.57h0a1.24,1.24,0,0,1-.3-1.79c4.19-5.49,5.45-6.64,5.71-6.47s-.29,1.79-3.64,7.82A1.24,1.24,0,0,1,62.4,98.57Z" fill="#e0edf0"/><path d="M62.11,98.72h0a1.24,1.24,0,0,1-1.4,1.16c-6.85-.88-8.47-1.4-8.46-1.71s1.69-.65,8.59-.76A1.24,1.24,0,0,1,62.11,98.72Z" fill="#e0edf0"/><circle cx="62.35" cy="98.85" r="1.25" transform="translate(-37.77 38.56) rotate(-26.7)" fill="#c6dbe0"/><rect x="35.98" y="114.95" width="34" height="15.09" rx="2" ry="2" fill="#e0edf0"/><rect x="66.04" y="117.04" width="2" height="5" rx="1" ry="1" fill="#9ad8e0"/><rect x="62.54" y="117.04" width="2" height="5" rx="1" ry="1" fill="#9ad8e0"/><rect x="59.04" y="117.04" width="2" height="5" rx="1" ry="1" fill="#9ad8e0"/><rect x="55.54" y="117.04" width="2" height="5" rx="1" ry="1" fill="#9ad8e0"/><rect x="52.04" y="117.04" width="2" height="5" rx="1" ry="1" fill="#9ad8e0"/><rect x="48.54" y="117.04" width="2" height="5" rx="1" ry="1" fill="#9ad8e0"/><rect x="45.04" y="117.04" width="2" height="5" rx="1" ry="1" fill="#9ad8e0"/><rect x="41.54" y="117.04" width="2" height="5" rx="1" ry="1" fill="#9ad8e0"/><rect x="38.04" y="117.04" width="2" height="5" rx="1" ry="1" fill="#9ad8e0"/><rect x="66.04" y="123.42" width="2" height="5" rx="1" ry="1" fill="#9ad8e0"/><rect x="62.54" y="123.42" width="2" height="5" rx="1" ry="1" fill="#9ad8e0"/><rect x="59.04" y="123.42" width="2" height="5" rx="1" ry="1" fill="#9ad8e0"/><rect x="55.54" y="123.42" width="2" height="5" rx="1" ry="1" fill="#9ad8e0"/><rect x="48.54" y="123.42" width="2" height="5" rx="1" ry="1" fill="#9ad8e0"/><rect x="45.04" y="123.42" width="2" height="5" rx="1" ry="1" fill="#9ad8e0"/><rect x="41.54" y="123.42" width="2" height="5" rx="1" ry="1" fill="#9ad8e0"/><rect x="38.04" y="123.42" width="2" height="5" rx="1" ry="1" fill="#9ad8e0"/><rect x="51.74" y="123.42" width="21.6" height="8" rx="2" ry="2" fill="#c6dbe0"/><rect x="53.04" y="124.93" width="11.5" height="5" rx="1" ry="1" fill="#9ad8e0"/><path d="M67,125.2h3.85a1,1,0,0,1,1,1v5.23a0,0,0,0,1,0,0H66a0,0,0,0,1,0,0V126.2A1,1,0,0,1,67,125.2Z" fill="#adc5c9"/><path d="M17.77,162.37H81a7.56,7.56,0,0,1,7.56,7.56v0a0,0,0,0,1,0,0H10.21a0,0,0,0,1,0,0v0A7.56,7.56,0,0,1,17.77,162.37Z" fill="#37474f"/><rect x="28.49" y="168.52" width="41.78" height="2.33" rx="0.93" ry="0.93" fill="#c6dbe0"/><rect x="26.95" y="162.06" width="10.59" height="2.33" transform="translate(-130.98 195.47) rotate(-90)" fill="#e0edf0"/><rect x="61.47" y="162.06" width="10.59" height="2.33" transform="translate(-96.45 229.99) rotate(-90)" fill="#e0edf0"/><rect x="49.97" y="162.06" width="10.59" height="2.33" transform="translate(-107.96 218.49) rotate(-90)" fill="#e0edf0"/><rect x="38.46" y="162.06" width="10.59" height="2.33" transform="translate(-119.47 206.98) rotate(-90)" fill="#e0edf0"/><rect x="28.53" y="153.82" width="41.78" height="4.19" rx="0.93" ry="0.93" fill="#c6dbe0"/><path d="M35.55,165h.28a1,1,0,0,1,1,1v2.52a0,0,0,0,1,0,0H34.55a0,0,0,0,1,0,0V166a1,1,0,0,1,1-1Z" fill="#adc5c9"/><path d="M47.06,165h.28a1,1,0,0,1,1,1v2.52a0,0,0,0,1,0,0H46.06a0,0,0,0,1,0,0V166a1,1,0,0,1,1-1Z" fill="#adc5c9"/><path d="M58.56,165h.28a1,1,0,0,1,1,1v2.52a0,0,0,0,1,0,0H57.56a0,0,0,0,1,0,0V166a1,1,0,0,1,1-1Z" fill="#adc5c9"/><path d="M87.18,148.82h0A4.83,4.83,0,0,1,92,153.64v15.72a1,1,0,0,1-1,1H83.35a1,1,0,0,1-1-1V153.64a4.83,4.83,0,0,1,4.83-4.83Z" fill="#adc5c9"/><circle cx="87.18" cy="153.96" r="4.02" fill="#e0edf0"/><path d="M87.8,155.46H85.3a.13.13,0,0,0-.12.13v.25a.13.13,0,0,0,.13.13h2.5a.13.13,0,0,0,.13-.12v-.25A.13.13,0,0,0,87.8,155.46ZM89,152.79l-.63-.63a.13.13,0,0,0-.18,0l-.09.09a.13.13,0,0,0,0,.18l.29.29v.49a.44.44,0,0,0,.38.43v1.26a.19.19,0,0,1-.37,0v-.25a.69.69,0,0,0-.69-.69h-.06v-1.5a.5.5,0,0,0-.5-.5H85.93a.5.5,0,0,0-.5.5v2.75h2.25v-.87h.06a.31.31,0,0,1,.31.31v.22a.59.59,0,0,0,.5.59.56.56,0,0,0,.62-.56v-1.75a.5.5,0,0,0-.15-.35Zm-1.85.66H85.93v-1h1.25Z" fill="#37474f"/><path d="M88.45,153.19h-.89l.33-1a.19.19,0,0,0-.18-.23H86.59a.19.19,0,0,0-.18.16L86.16,154a.19.19,0,0,0,.18.21h.92l-.36,1.5a.19.19,0,0,0,.34.14l1.36-2.35A.19.19,0,0,0,88.45,153.19Z" fill="#37474f"/><circle cx="178.38" cy="181.1" r="1.5" fill="#9e9d9e"/><circle cx="188.63" cy="181.1" r="1.5" fill="#9e9d9e"/><path d="M190.05,177.08H177a2,2,0,0,0-2,2h0a2,2,0,0,0,1.34,1.87.1.1,0,0,0,.13-.09,2,2,0,0,1,4,.11.1.1,0,0,0,.09.09h6.07a.1.1,0,0,0,.09-.09,2,2,0,0,1,4-.11.1.1,0,0,0,.13.09,2,2,0,0,0,1.34-1.87h0A2,2,0,0,0,190.05,177.08Z" fill="#9e9d9e"/><path d="M189.13,173.06h-5.28a1,1,0,0,0-.62.21l-4.85,3.81h11.75v-3A1,1,0,0,0,189.13,173.06Z" fill="#9e9d9e"/><circle cx="88.92" cy="195.94" r="1.5" fill="#009789"/><circle cx="78.67" cy="195.94" r="1.5" fill="#009789"/><path d="M77.25,191.92h13.1a2,2,0,0,1,2,2h0A2,2,0,0,1,91,195.82a.1.1,0,0,1-.13-.09,2,2,0,0,0-4,.11.1.1,0,0,1-.09.09H80.76a.1.1,0,0,1-.09-.09,2,2,0,0,0-4-.11.1.1,0,0,1-.13.09,2,2,0,0,1-1.34-1.87h0A2,2,0,0,1,77.25,191.92Z" fill="#009789"/><path d="M78.17,187.9h5.28a1,1,0,0,1,.62.21l4.85,3.81H77.17v-3A1,1,0,0,1,78.17,187.9Z" fill="#24a69a"/></svg>